<?xml version="1.0" encoding="UTF-8"?>
<svg xmlns="http://www.w3.org/2000/svg" width="400" height="125" viewBox="0 0 400 125"><style>
        .gh-repo { font: 600 14px 'Segoe UI', Ubuntu, Sans-Serif; fill: #0969da; }
        .gh-desc { font: 400 12px 'Segoe UI', Ubuntu, Sans-Serif; fill: #656d76; }
        .gh-lang { font: 400 12px 'Segoe UI', Ubuntu, Sans-Serif; fill: #24292f; }
        .gh-stat { font: 400 12px 'Segoe UI', Ubuntu, Sans-Serif; fill: #656d76; }
      </style><rect width="400" height="125" rx="6" fill="#ffffff" stroke="#d0d7de" stroke-width="1"></rect><svg x="14" y="14" width="16" height="16" viewBox="0 0 16 16" fill="#57606a"><path d="M2 2.5A2.5 2.5 0 0 1 4.5 0h8.75a.75.75 0 0 1 .75.75v12.5a.75.75 0 0 1-.75.75h-2.5a.75.75 0 0 1 0-1.5h1.75v-2h-8a1 1 0 0 0-.714 1.7.75.75 0 1 1-1.072 1.05A2.495 2.495 0 0 1 2 11.5Zm10.5-1h-8a1 1 0 0 0-1 1v6.708A2.486 2.486 0 0 1 4.5 9h8Z"></path></svg><text x="36" y="26" class="gh-repo">TanStack/table</text><text x="18" y="50" class="gh-desc">🤖 Headless UI for building powerful tables &amp; datagrids fo…</text><g><circle cx="24" cy="89" r="6" fill="#3178c6"></circle><text x="35" y="94" class="gh-lang">TypeScript</text></g><text x="130" y="94" class="gh-stat">★ 28.0k</text><text x="195" y="94" class="gh-stat">⑂ 3.5k</text></svg>